<?xml version="1.0" encoding="utf-8"?>
<!-- Generator: Adobe Illustrator 22.1.0, SVG Export Plug-In . SVG Version: 6.00 Build 0)  -->
<svg version="1.1" id="Calque_1" xmlns="http://www.w3.org/2000/svg" xmlns:xlink="http://www.w3.org/1999/xlink" x="0px" y="0px"
	 viewBox="0 0 278 501" style="enable-background:new 0 0 278 501;" xml:space="preserve">
<style type="text/css">
	.st0{fill:#FFFFFF;}
	.st1{clip-path:url(#SVGID_1_);fill:url(#SVGID_2_);}
	.st2{clip-path:url(#SVGID_1_);fill:url(#v_1_);}
	.st3{clip-path:url(#SVGID_1_);fill:url(#SVGID_3_);}
	.st4{clip-path:url(#SVGID_1_);fill:url(#SVGID_4_);}
	.st5{clip-path:url(#SVGID_1_);fill:none;}
	.st6{clip-path:url(#SVGID_1_);}
	.st7{fill:url(#SVGID_5_);}
	.st8{fill:url(#SVGID_6_);}
	.st9{fill:url(#SVGID_7_);}
	.st10{fill:url(#SVGID_8_);}
	.st11{fill:url(#SVGID_9_);}
	.st12{fill:url(#SVGID_10_);}
	.st13{fill:url(#SVGID_11_);}
	.st14{fill:url(#SVGID_12_);}
</style>
<path class="st0" d="M62.3,85.7c0,0,50.5-33.3,50.5-78.7h57.4c0,45.4,50.5,78.7,50.5,78.7l-0.5-0.3h0.2v0.1v0.2v69.2H62V85.4h0.8"/>
<g>
	<defs>
		<path id="SVGID_14_" d="M183.5,489h-78.8C81.1,489,62,469.9,62,446.3V162.9h158.5V452C220.5,472.4,203.9,489,183.5,489z"/>
	</defs>
	<clipPath id="SVGID_1_">
		<use xlink:href="#SVGID_14_"  style="overflow:visible;"/>
	</clipPath>
	<linearGradient id="SVGID_2_" gradientUnits="userSpaceOnUse" x1="185.3005" y1="470.053" x2="185.3005" y2="192.7379">
		<stop  offset="0" style="stop-color:#FFFF20"/>
		<stop  offset="0.4304" style="stop-color:#FDFF20"/>
		<stop  offset="0.5855" style="stop-color:#F6FF1E"/>
		<stop  offset="0.696" style="stop-color:#EBFE1B"/>
		<stop  offset="0.7854" style="stop-color:#DAFE16"/>
		<stop  offset="0.8619" style="stop-color:#C4FD10"/>
		<stop  offset="0.9284" style="stop-color:#A9FC09"/>
		<stop  offset="0.9883" style="stop-color:#8AFB01"/>
		<stop  offset="0.9944" style="stop-color:#86FB00"/>
	</linearGradient>
	<path class="st1" d="M60.3,192.7c-61.6,25.9,53.9,71.7,121.1,28.1c60-38.9,146.4,40.2,146.4,40.2l-26.4,209H56.3L60.3,192.7z"/>
	<linearGradient id="v_1_" gradientUnits="userSpaceOnUse" x1="255.9196" y1="488.5694" x2="8.4604" y2="241.1102">
		<stop  offset="0" style="stop-color:#9FE588"/>
		<stop  offset="0.4074" style="stop-color:#9DE588"/>
		<stop  offset="0.5542" style="stop-color:#96E487"/>
		<stop  offset="0.6588" style="stop-color:#8BE386"/>
		<stop  offset="0.7434" style="stop-color:#7AE185"/>
		<stop  offset="0.8158" style="stop-color:#64DF83"/>
		<stop  offset="0.88" style="stop-color:#48DD80"/>
		<stop  offset="0.9372" style="stop-color:#29DA7E"/>
		<stop  offset="0.9889" style="stop-color:#04D67A"/>
		<stop  offset="0.9944" style="stop-color:#00D67A"/>
	</linearGradient>
	<path id="v" class="st2" d="M34.2,215.4c0,0,46.3-1.9,106.1,18.3s99.4,9.9,99.4,9.9l4.6,256.6l-202.7,2.9L34.2,215.4z"/>
	<linearGradient id="SVGID_3_" gradientUnits="userSpaceOnUse" x1="138.075" y1="515.6981" x2="138.075" y2="253.5723">
		<stop  offset="0" style="stop-color:#000000"/>
		<stop  offset="0.3256" style="stop-color:#010202"/>
		<stop  offset="0.4713" style="stop-color:#040909"/>
		<stop  offset="0.5812" style="stop-color:#091616"/>
		<stop  offset="0.6731" style="stop-color:#102728"/>
		<stop  offset="0.7539" style="stop-color:#193E40"/>
		<stop  offset="0.8266" style="stop-color:#245A5D"/>
		<stop  offset="0.8935" style="stop-color:#317C7F"/>
		<stop  offset="0.954" style="stop-color:#40A1A6"/>
		<stop  offset="0.9944" style="stop-color:#4CBFC4"/>
	</linearGradient>
	<path class="st3" d="M-12.9,257.3c0,0,64.9,31.6,147,4c82.1-27.6,155,27,155,27l-29.3,227.4H12.9L-12.9,257.3z"/>
	<linearGradient id="SVGID_4_" gradientUnits="userSpaceOnUse" x1="251.9005" y1="547.4199" x2="-13.6444" y2="281.8749">
		<stop  offset="0" style="stop-color:#6D366D"/>
		<stop  offset="0.159" style="stop-color:#64517B"/>
		<stop  offset="0.391" style="stop-color:#5A728D"/>
		<stop  offset="0.6133" style="stop-color:#528A9A"/>
		<stop  offset="0.8196" style="stop-color:#4E98A1"/>
		<stop  offset="0.9944" style="stop-color:#4C9DA4"/>
	</linearGradient>
	<path class="st4" d="M-23.3,291.5c0,0,64.9,31.6,147,4s155,27,155,27l-29.3,227.4H2.6L-23.3,291.5z"/>
	<path class="st5" d="M183.5,489h-78.8C81.1,489,62,469.9,62,446.3V162.9h158.5V452C220.5,472.4,203.9,489,183.5,489z"/>
	<g class="st6">
		<linearGradient id="SVGID_5_" gradientUnits="userSpaceOnUse" x1="141.2329" y1="489" x2="141.2329" y2="162.8821">
			<stop  offset="0.8615" style="stop-color:#6DE06D;stop-opacity:0"/>
			<stop  offset="0.9804" style="stop-color:#6DE06D;stop-opacity:8.586600e-02"/>
			<stop  offset="1" style="stop-color:#6DE06D;stop-opacity:0.1"/>
		</linearGradient>
		<path class="st7" d="M183.5,489h-78.8C81.1,489,62,469.9,62,446.3V162.9h158.5V452C220.5,472.4,203.9,489,183.5,489z"/>
	</g>
</g>
<g>
	<linearGradient id="SVGID_6_" gradientUnits="userSpaceOnUse" x1="199.2222" y1="489" x2="199.2222" y2="162.8821">
		<stop  offset="1.025641e-02" style="stop-color:#FFFFFF;stop-opacity:0.3"/>
		<stop  offset="0.8601" style="stop-color:#FFFFFF;stop-opacity:0.3"/>
		<stop  offset="1" style="stop-color:#FFFFFF;stop-opacity:0.3"/>
	</linearGradient>
	<path class="st8" d="M199.8,162.9v304.9c0,11.7-9.5,21.2-21.2,21.2h20.1c11.7,0,21.2-9.5,21.2-21.2V162.9H199.8z"/>
</g>
<linearGradient id="SVGID_7_" gradientUnits="userSpaceOnUse" x1="185.4425" y1="154.8439" x2="185.4425" y2="7">
	<stop  offset="0" style="stop-color:#000000;stop-opacity:0"/>
	<stop  offset="1" style="stop-color:#000000;stop-opacity:0.1"/>
</linearGradient>
<path class="st9" d="M221.3,85.7c0,0-0.1-0.1-0.3-0.2v-0.1h-0.1c-4.8-3.3-50.1-35.4-50.1-78.4h-21.2c0,42.9,45.3,75.1,50.1,78.4h0.1
	v0.1c0.2,0.1,0.3,0.2,0.3,0.2l-0.3-0.2v0v0.2v69.2H221V85.7v-0.2v0L221.3,85.7z"/>
<linearGradient id="SVGID_8_" gradientUnits="userSpaceOnUse" x1="87.5497" y1="207.6659" x2="87.5497" y2="192.1638">
	<stop  offset="0" style="stop-color:#ADFF55;stop-opacity:0.1"/>
	<stop  offset="0.4028" style="stop-color:#ABFF55;stop-opacity:0.2611"/>
	<stop  offset="0.5479" style="stop-color:#A4FE53;stop-opacity:0.3192"/>
	<stop  offset="0.6514" style="stop-color:#99FC50;stop-opacity:0.3606"/>
	<stop  offset="0.7351" style="stop-color:#88FA4D;stop-opacity:0.394"/>
	<stop  offset="0.8067" style="stop-color:#72F748;stop-opacity:0.4227"/>
	<stop  offset="0.8701" style="stop-color:#56F442;stop-opacity:0.448"/>
	<stop  offset="0.9275" style="stop-color:#36F03B;stop-opacity:0.471"/>
	<stop  offset="0.9785" style="stop-color:#12EB33;stop-opacity:0.4914"/>
	<stop  offset="1" style="stop-color:#00E92F;stop-opacity:0.5"/>
</linearGradient>
<circle class="st10" cx="87.5" cy="199.9" r="7.8"/>
<linearGradient id="SVGID_9_" gradientUnits="userSpaceOnUse" x1="151.2805" y1="223.7421" x2="151.2805" y2="208.24">
	<stop  offset="0" style="stop-color:#00A8D4;stop-opacity:0.1"/>
	<stop  offset="0.4625" style="stop-color:#01AAD5;stop-opacity:0.285"/>
	<stop  offset="0.6291" style="stop-color:#06B1D7;stop-opacity:0.3516"/>
	<stop  offset="0.7478" style="stop-color:#0FBCDC;stop-opacity:0.3991"/>
	<stop  offset="0.8438" style="stop-color:#1BCDE3;stop-opacity:0.4375"/>
	<stop  offset="0.9251" style="stop-color:#2BE3EB;stop-opacity:0.47"/>
	<stop  offset="0.9967" style="stop-color:#3EFEF5;stop-opacity:0.4987"/>
	<stop  offset="1" style="stop-color:#3FFFF6;stop-opacity:0.5"/>
</linearGradient>
<circle class="st11" cx="151.3" cy="216" r="7.8"/>
<linearGradient id="SVGID_10_" gradientUnits="userSpaceOnUse" x1="178.8398" y1="186.4223" x2="178.8398" y2="170.9202">
	<stop  offset="0" style="stop-color:#ADFF55;stop-opacity:0.1"/>
	<stop  offset="0.4043" style="stop-color:#AEFF57;stop-opacity:0.1"/>
	<stop  offset="0.5499" style="stop-color:#B1FF5E;stop-opacity:0.1"/>
	<stop  offset="0.6537" style="stop-color:#B7FF69;stop-opacity:0.1"/>
	<stop  offset="0.7376" style="stop-color:#BFFF7A;stop-opacity:0.1"/>
	<stop  offset="0.8096" style="stop-color:#CAFF90;stop-opacity:0.1"/>
	<stop  offset="0.8732" style="stop-color:#D7FFAC;stop-opacity:0.1"/>
	<stop  offset="0.9308" style="stop-color:#E6FFCC;stop-opacity:0.1"/>
	<stop  offset="0.982" style="stop-color:#F8FFF0;stop-opacity:0.1"/>
	<stop  offset="1" style="stop-color:#FFFFFF;stop-opacity:0.1"/>
</linearGradient>
<circle class="st12" cx="178.8" cy="178.7" r="7.8"/>
<linearGradient id="SVGID_11_" gradientUnits="userSpaceOnUse" x1="185.1555" y1="220.8714" x2="185.1555" y2="208.8142">
	<stop  offset="0" style="stop-color:#ADFF55;stop-opacity:0.1"/>
	<stop  offset="0.4043" style="stop-color:#AEFF57;stop-opacity:0.1809"/>
	<stop  offset="0.5499" style="stop-color:#B1FF5E;stop-opacity:0.21"/>
	<stop  offset="0.6537" style="stop-color:#B7FF69;stop-opacity:0.2307"/>
	<stop  offset="0.7376" style="stop-color:#BFFF7A;stop-opacity:0.2475"/>
	<stop  offset="0.8096" style="stop-color:#CAFF90;stop-opacity:0.2619"/>
	<stop  offset="0.8732" style="stop-color:#D7FFAC;stop-opacity:0.2746"/>
	<stop  offset="0.9308" style="stop-color:#E6FFCC;stop-opacity:0.2862"/>
	<stop  offset="0.982" style="stop-color:#F8FFF0;stop-opacity:0.2964"/>
	<stop  offset="1" style="stop-color:#FFFFFF;stop-opacity:0.3"/>
</linearGradient>
<circle class="st13" cx="185.2" cy="214.8" r="6"/>
<linearGradient id="SVGID_12_" gradientUnits="userSpaceOnUse" x1="122.573" y1="193.8862" x2="122.573" y2="178.3842">
	<stop  offset="0" style="stop-color:#ADFF55;stop-opacity:0.1"/>
	<stop  offset="0.4028" style="stop-color:#ABFF55;stop-opacity:0.2611"/>
	<stop  offset="0.5479" style="stop-color:#A4FE53;stop-opacity:0.3192"/>
	<stop  offset="0.6514" style="stop-color:#99FC50;stop-opacity:0.3606"/>
	<stop  offset="0.7351" style="stop-color:#88FA4D;stop-opacity:0.394"/>
	<stop  offset="0.8067" style="stop-color:#72F748;stop-opacity:0.4227"/>
	<stop  offset="0.8701" style="stop-color:#56F442;stop-opacity:0.448"/>
	<stop  offset="0.9275" style="stop-color:#36F03B;stop-opacity:0.471"/>
	<stop  offset="0.9785" style="stop-color:#12EB33;stop-opacity:0.4914"/>
	<stop  offset="1" style="stop-color:#00E92F;stop-opacity:0.5"/>
</linearGradient>
<circle class="st14" cx="122.6" cy="186.1" r="7.8"/>
</svg>
