<?xml version="1.0" encoding="utf-8"?>
<!-- Generator: Adobe Illustrator 22.1.0, SVG Export Plug-In . SVG Version: 6.00 Build 0)  -->
<svg version="1.1" id="Top" xmlns="http://www.w3.org/2000/svg" xmlns:xlink="http://www.w3.org/1999/xlink" x="0px" y="0px"
	 viewBox="0 0 264 819.5" style="enable-background:new 0 0 264 819.5;" xml:space="preserve">
<style type="text/css">
	.st0{fill:url(#SVGID_1_);}
	.st1{fill:url(#SVGID_2_);}
</style>
<g>
	<linearGradient id="SVGID_1_" gradientUnits="userSpaceOnUse" x1="-63.1066" y1="738.8198" x2="327.1066" y2="348.6066">
		<stop  offset="0" style="stop-color:#FF7BAC"/>
		<stop  offset="0.4952" style="stop-color:#FC989B;stop-opacity:0.9505"/>
		<stop  offset="1" style="stop-color:#FAB18D;stop-opacity:0.9"/>
	</linearGradient>
	<path class="st0" d="M0,789.5c0,16.6,13.4,30,30,30h204c16.6,0,30-13.4,30-30v-504H0V789.5z M15,303.5h233v472.6
		c0,16.6-13.4,30-30,30H45c-16.6,0-30-13.4-30-30V303.5z"/>
	<linearGradient id="SVGID_2_" gradientUnits="userSpaceOnUse" x1="19.75" y1="290.25" x2="244.75" y2="65.25">
		<stop  offset="0" style="stop-color:#FF7BAC"/>
		<stop  offset="0.4952" style="stop-color:#FC989B;stop-opacity:0.9505"/>
		<stop  offset="1" style="stop-color:#FAB18D;stop-opacity:0.9"/>
	</linearGradient>
	<path class="st1" d="M179.5,0h-94c0,29.7-13.4,57.9-29.8,81.9c-9.2,13.5-19.7,26-31.1,37.8c-3.9,4-7.8,7.9-11.9,11.7
		c-4.1,3.8-8.7,7.3-12.7,11.2h0c0,0,0,0,0,0v128h264v-128C264,142.5,179.5,74.3,179.5,0z M248,256.5H14.1c0,0,0-105,0-105
		c0,0,7.6-6.1,11.2-9.2c3.6-3.1,7.1-6.3,10.5-9.6c10-9.6,19.3-19.9,27.5-31C78,82,100,44.9,100,20.5h64c0,60.9,84,131,84,131V256.5z
		"/>
</g>
</svg>
