<?xml version="1.0" encoding="utf-8"?>
<!-- Generator: Adobe Illustrator 22.1.0, SVG Export Plug-In . SVG Version: 6.00 Build 0)  -->
<svg version="1.1" id="Calque_2" xmlns="http://www.w3.org/2000/svg" xmlns:xlink="http://www.w3.org/1999/xlink" x="0px" y="0px"
	 viewBox="0 0 450 535.5" style="enable-background:new 0 0 450 535.5;" xml:space="preserve">
<style type="text/css">
	.st0 { 
		fill:url(#SVGID_1_);
		stroke-dasharray: 100;
  	animation: dash 5s linear;
	}

	@keyframes dash {
		to {
			stroke-dashoffset: 1000;
		}
	}
</style>
<g>
	<g>
		<linearGradient id="SVGID_1_" gradientUnits="userSpaceOnUse" x1="111.9799" y1="415.4799" x2="349.1148" y2="178.3449">
			<stop  offset="0" style="stop-color:#FF7BAC"/>
			<stop  offset="0.4952" style="stop-color:#FC989B;stop-opacity:0.901"/>
			<stop  offset="1" style="stop-color:#FAB18D;stop-opacity:0.8"/>
		</linearGradient>
		<path class="st0" d="M399.3,168.3C399.3,168.2,399.3,168.2,399.3,168.3L272.9,24.1c0,0-0.1-0.1-0.3-0.4
			C261.1,11.4,241.6,0,224.5,0c-17,0-35.7,12.1-47.2,23.9c0,0-0.1,0.1-0.1,0.1c0,0.1-0.1,0.1-0.1,0.1L50.7,168.2c0,0,0,0-0.1,0.1
			C19,207,0,256.5,0,310.5c0,124.3,100.7,225,225,225s225-100.7,225-225C450,256.5,431,207,399.3,168.3z M225.5,517.5
			C109.8,517.5,16,423.7,16,308c0-50.2,17.7-96.4,47.2-132.5c0,0,0,0,0-0.1l-3.9,4.5l4-4.5c3.1-3.8,6.3-7.5,9.7-11.1l-9.7,11.1
			c0,0,0,0,0,0L180.9,41.3c0,0,0,0,0.1-0.1c0,0,0.1-0.1,0.1-0.1c-0.1,0.1-0.1,0.1-0.2,0.2l0.6-0.7c-0.1,0.1-0.2,0.3-0.3,0.4
			c-0.1,0.1-0.1,0.1-0.1,0.1c10.7-11,28.1-22.3,43.9-22.3c15.9,0,34.1,10.6,44.7,22.1c-0.2-0.2-0.4-0.4-0.6-0.7l-0.7-0.7
			c0.1,0.1,0.2,0.2,0.3,0.3s0.2,0.2,0.2,0.3c0.1,0.1,0.1,0.1,0.2,0.2l0.9,1.1c-0.1-0.1-0.2-0.2-0.3-0.3c0.2,0.2,0.3,0.4,0.3,0.4
			l117.7,134.1c0,0,0,0,0,0l4,4.5l-3.9-4.5c0,0,0,0,0,0.1C417.3,211.6,435,257.8,435,308C435,423.7,341.2,517.5,225.5,517.5z"/>
	</g>
</g>
</svg>
