<?xml version="1.0" encoding="utf-8"?>
<!-- Generator: Adobe Illustrator 22.1.0, SVG Export Plug-In . SVG Version: 6.00 Build 0)  -->
<svg version="1.1" xmlns="http://www.w3.org/2000/svg" xmlns:xlink="http://www.w3.org/1999/xlink" x="0px" y="0px"
	 viewBox="0 0 500 1000" style="enable-background:new 0 0 500 1000;" xml:space="preserve">
<style type="text/css">
	.st0{clip-path:url(#SVGID_2_);fill:url(#SVGID_3_);}
	.st1{clip-path:url(#SVGID_2_);fill:url(#SVGID_4_);}
	.st2{clip-path:url(#SVGID_2_);fill:url(#SVGID_5_);}
	.st3{clip-path:url(#SVGID_2_);fill:url(#SVGID_6_);}
	.st4{clip-path:url(#SVGID_2_);}
	.st5{fill:url(#SVGID_7_);}
	.st6{fill:url(#SVGID_8_);}
	.st7{fill:url(#SVGID_9_);}
	.st8{fill:url(#SVGID_10_);}
	.st9{fill:#333333;}
</style>
<g id="Calque_1">
	<g>
		<defs>
			<path id="SVGID_1_" d="M384.8,983H115.2C98,983,84,969,84,951.8V450.2c0-54.8,44.4-99.2,99.2-99.2H321c52.5,0,95,42.5,95,95
				v505.8C416,969,402,983,384.8,983z"/>
		</defs>
		<clipPath id="SVGID_2_">
			<use xlink:href="#SVGID_1_"  style="overflow:visible;"/>
		</clipPath>
		<linearGradient id="SVGID_3_" gradientUnits="userSpaceOnUse" x1="58.2391" y1="993.2928" x2="365.8496" y2="460.4957">
			<stop  offset="0" style="stop-color:#E95E00"/>
			<stop  offset="0.4336" style="stop-color:#E96000"/>
			<stop  offset="0.5898" style="stop-color:#EB6702"/>
			<stop  offset="0.7011" style="stop-color:#ED7204"/>
			<stop  offset="0.7911" style="stop-color:#F08307"/>
			<stop  offset="0.8682" style="stop-color:#F4990A"/>
			<stop  offset="0.9352" style="stop-color:#F9B40F"/>
			<stop  offset="0.9956" style="stop-color:#FFD315"/>
			<stop  offset="1" style="stop-color:#FFD615"/>
		</linearGradient>
		<path class="st0" d="M47,384c0,0,120,116.3,233,91.1s237,77.9,237,77.9L422,992H56"/>
		<linearGradient id="SVGID_4_" gradientUnits="userSpaceOnUse" x1="263.5" y1="999.5" x2="263.5" y2="485.3571">
			<stop  offset="0" style="stop-color:#E91300"/>
			<stop  offset="0.3185" style="stop-color:#E71300"/>
			<stop  offset="0.4686" style="stop-color:#DF1100"/>
			<stop  offset="0.5834" style="stop-color:#D20F00"/>
			<stop  offset="0.6803" style="stop-color:#C00C00"/>
			<stop  offset="0.7659" style="stop-color:#A80800"/>
			<stop  offset="0.8423" style="stop-color:#8B0400"/>
			<stop  offset="0.8923" style="stop-color:#740000"/>
		</linearGradient>
		<path class="st1" d="M34.5,486.5c0,0,122-14,242,56s216,4,216,4l-10,453l-442-8"/>
		<linearGradient id="SVGID_5_" gradientUnits="userSpaceOnUse" x1="480.5" y1="816.4286" x2="22.5" y2="816.4286">
			<stop  offset="0" style="stop-color:#E91300"/>
			<stop  offset="0.1491" style="stop-color:#E11200"/>
			<stop  offset="0.3843" style="stop-color:#CA0E00"/>
			<stop  offset="0.6761" style="stop-color:#A50800"/>
			<stop  offset="1" style="stop-color:#740000"/>
		</linearGradient>
		<path class="st2" d="M22.5,560.5c0,0,122-14,242,56s216,4,216,4l-10,453l-442-8"/>
		<linearGradient id="SVGID_6_" gradientUnits="userSpaceOnUse" x1="356.6266" y1="629.327" x2="104.0111" y2="1066.8699">
			<stop  offset="0" style="stop-color:#FF5F2A"/>
			<stop  offset="0.1633" style="stop-color:#EE542A"/>
			<stop  offset="0.4865" style="stop-color:#C23828"/>
			<stop  offset="0.935" style="stop-color:#7C0B26"/>
			<stop  offset="1" style="stop-color:#710426"/>
		</linearGradient>
		<path class="st3" d="M8.5,627.5c0,0,49,68,204,39s270,35.5,270,35.5l-6,324.5l-458-9L8.5,627.5z"/>
		<g class="st4">
			<linearGradient id="SVGID_7_" gradientUnits="userSpaceOnUse" x1="250" y1="351" x2="250" y2="983">
				<stop  offset="0" style="stop-color:#6A0000;stop-opacity:0.1"/>
				<stop  offset="8.651401e-03" style="stop-color:#781212;stop-opacity:9.736403e-02"/>
				<stop  offset="3.135065e-02" style="stop-color:#973A3A;stop-opacity:9.044785e-02"/>
				<stop  offset="5.618155e-02" style="stop-color:#B35E5E;stop-opacity:8.288218e-02"/>
				<stop  offset="8.292420e-02" style="stop-color:#CB7C7C;stop-opacity:7.473403e-02"/>
				<stop  offset="0.1122" style="stop-color:#DE9595;stop-opacity:6.582755e-02"/>
				<stop  offset="0.1449" style="stop-color:#EDA8A8;stop-opacity:5.583852e-02"/>
				<stop  offset="0.1832" style="stop-color:#F7B5B5;stop-opacity:4.417519e-02"/>
				<stop  offset="0.2321" style="stop-color:#FDBDBD;stop-opacity:2.927120e-02"/>
				<stop  offset="0.3282" style="stop-color:#FFBFBF;stop-opacity:0"/>
			</linearGradient>
			<path class="st5" d="M384.8,983H115.2C98,983,84,969,84,951.8V450.2c0-54.8,44.4-99.2,99.2-99.2H321c52.5,0,95,42.5,95,95v505.8
				C416,969,402,983,384.8,983z"/>
		</g>
	</g>
	<g>
		<linearGradient id="SVGID_8_" gradientUnits="userSpaceOnUse" x1="293.0217" y1="667" x2="416" y2="667">
			<stop  offset="0" style="stop-color:#FFFFFF;stop-opacity:0.3"/>
			<stop  offset="0.8809" style="stop-color:#FFFFFF;stop-opacity:0.3"/>
			<stop  offset="1" style="stop-color:#FFFFFF;stop-opacity:0.3"/>
		</linearGradient>
		<path class="st6" d="M321,351h-28c52.5,0,95,42.5,95,95v505.8c0,17.2-14,31.2-31.2,31.2h28c17.2,0,31.2-14,31.2-31.2V446
			C416,393.5,373.5,351,321,351z"/>
	</g>
</g>
<g id="Calque_2">
	<linearGradient id="SVGID_9_" gradientUnits="userSpaceOnUse" x1="231" y1="508" x2="269" y2="508">
		<stop  offset="0" style="stop-color:#FFFFFF;stop-opacity:0.1"/>
		<stop  offset="1" style="stop-color:#FFFFFF;stop-opacity:0"/>
	</linearGradient>
	<polyline class="st7" points="268.5,780 269,780 269,236 231,236 231,780 231.5,780 	"/>
	<linearGradient id="SVGID_10_" gradientUnits="userSpaceOnUse" x1="231" y1="835.2499" x2="269" y2="835.2499">
		<stop  offset="0" style="stop-color:#FFFFFF;stop-opacity:0.1"/>
		<stop  offset="1" style="stop-color:#FFFFFF;stop-opacity:0"/>
	</linearGradient>
	<path class="st8" d="M269,780c0,0,1,28.9-7.2,51.8c-8.2,22.9-8.2,58.7-8.2,58.7h-7.1c0,0,0-35.8-8.2-58.7
		C230,808.9,231,780,231,780"/>
</g>
<g id="Calque_3">
	<path class="st9" d="M249,28L249,28c-19.6,0-35.5,15.9-35.5,35.5V182c0,19.6,15.9,35.5,35.5,35.5h0c19.6,0,35.5-15.9,35.5-35.5
		V63.5C284.6,43.9,268.7,28,249,28z"/>
	<rect x="139.5" y="183" class="st9" width="219.5" height="152.5"/>
</g>
</svg>
